<?xml version="1.0" encoding="UTF-8"?>
<svg xmlns="http://www.w3.org/2000/svg" width="256" height="256" viewBox="0 0 256 256">
  <defs>
    <radialGradient id="node">
      <stop offset="0%" stop-color="#F0CF5A" stop-opacity="1"/>
      <stop offset="20%" stop-color="#D4A843" stop-opacity="0.6"/>
      <stop offset="60%" stop-color="#D4A843" stop-opacity="0.1"/>
      <stop offset="100%" stop-color="#D4A843" stop-opacity="0"/>
    </radialGradient>
    <radialGradient id="crystal">
      <stop offset="0%" stop-color="#F0CF5A" stop-opacity="0.9"/>
      <stop offset="30%" stop-color="#D4A843" stop-opacity="0.3"/>
      <stop offset="100%" stop-color="#D4A843" stop-opacity="0"/>
    </radialGradient>
    <radialGradient id="outerGlow">
      <stop offset="0%" stop-color="#D4A843" stop-opacity="0.08"/>
      <stop offset="100%" stop-color="#D4A843" stop-opacity="0"/>
    </radialGradient>
    <radialGradient id="monoNode">
      <stop offset="0%" stop-color="#CCCCCC" stop-opacity="1"/>
      <stop offset="20%" stop-color="#999999" stop-opacity="0.6"/>
      <stop offset="60%" stop-color="#666666" stop-opacity="0.1"/>
      <stop offset="100%" stop-color="#444444" stop-opacity="0"/>
    </radialGradient>
    <radialGradient id="monoCrystal">
      <stop offset="0%" stop-color="#CCCCCC" stop-opacity="0.9"/>
      <stop offset="30%" stop-color="#999999" stop-opacity="0.3"/>
      <stop offset="100%" stop-color="#666666" stop-opacity="0"/>
    </radialGradient>
  </defs>
  <rect width="256" height="256" fill="#080E1A"/>
  <circle cx="128" cy="115" r="76.94999999999999" fill="url(#outerGlow)"/>
  <circle cx="128" cy="115" r="58.99499999999999" fill="none" stroke="#7B7590" stroke-width="0.30400000000000005" opacity="0.1"/>
  <path d="M 172.4271032141417 89.35000000000001 Q 159.0989722498992 79.09, 128.0 63.7" fill="none" stroke="#D4A843" stroke-width="0.5" opacity="0.22"/>
  <path d="M 128.0 63.7 Q 114.6718690357575 73.96, 83.5728967858583 89.34999999999998" fill="none" stroke="#D4A843" stroke-width="0.5" opacity="0.22"/>
  <path d="M 83.5728967858583 89.34999999999998 Q 83.5728967858583 109.86999999999998, 83.57289678585829 140.64999999999998" fill="none" stroke="#D4A843" stroke-width="0.5" opacity="0.22"/>
  <path d="M 83.57289678585829 140.64999999999998 Q 96.9010277501008 150.91, 127.99999999999999 166.3" fill="none" stroke="#D4A843" stroke-width="0.5" opacity="0.22"/>
  <path d="M 127.99999999999999 166.3 Q 141.3281309642425 156.04, 172.4271032141417 140.64999999999998" fill="none" stroke="#D4A843" stroke-width="0.5" opacity="0.22"/>
  <path d="M 172.4271032141417 140.64999999999998 Q 172.4271032141417 120.13, 172.4271032141417 89.35000000000001" fill="none" stroke="#D4A843" stroke-width="0.5" opacity="0.22"/>
  <polygon points="172.4271032141417,89.35000000000001 128.0,63.7 83.5728967858583,89.34999999999998 83.57289678585829,140.64999999999998 127.99999999999999,166.3 172.4271032141417,140.64999999999998" fill="none" stroke="#D4A843" stroke-width="0.8" opacity="0.45"/>
  <line x1="128" y1="115" x2="172.4271032141417" y2="89.35000000000001" stroke="#D4A843" stroke-width="0.5" opacity="0.3"/>
  <line x1="128" y1="115" x2="128.0" y2="63.7" stroke="#D4A843" stroke-width="0.5" opacity="0.3"/>
  <line x1="128" y1="115" x2="83.5728967858583" y2="89.34999999999998" stroke="#D4A843" stroke-width="0.5" opacity="0.3"/>
  <line x1="128" y1="115" x2="83.57289678585829" y2="140.64999999999998" stroke="#D4A843" stroke-width="0.5" opacity="0.3"/>
  <line x1="128" y1="115" x2="127.99999999999999" y2="166.3" stroke="#D4A843" stroke-width="0.5" opacity="0.3"/>
  <line x1="128" y1="115" x2="172.4271032141417" y2="140.64999999999998" stroke="#D4A843" stroke-width="0.5" opacity="0.3"/>
  <circle cx="172.4271032141417" cy="89.35000000000001" r="8.74" fill="url(#node)"/>
  <circle cx="172.4271032141417" cy="89.35000000000001" r="2" fill="none" stroke="#D4A843" stroke-width="0.6" opacity="0.55"/>
  <circle cx="172.4271032141417" cy="89.35000000000001" r="0.8" fill="#F0CF5A" opacity="1.0"/>
  <circle cx="128.0" cy="63.7" r="8.74" fill="url(#node)"/>
  <circle cx="128.0" cy="63.7" r="2" fill="none" stroke="#D4A843" stroke-width="0.6" opacity="0.4"/>
  <circle cx="128.0" cy="63.7" r="0.8" fill="#F0CF5A" opacity="0.75"/>
  <circle cx="83.5728967858583" cy="89.34999999999998" r="8.74" fill="url(#node)"/>
  <circle cx="83.5728967858583" cy="89.34999999999998" r="2" fill="none" stroke="#D4A843" stroke-width="0.6" opacity="0.5"/>
  <circle cx="83.5728967858583" cy="89.34999999999998" r="0.8" fill="#F0CF5A" opacity="0.95"/>
  <circle cx="83.57289678585829" cy="140.64999999999998" r="8.74" fill="url(#node)"/>
  <circle cx="83.57289678585829" cy="140.64999999999998" r="2" fill="none" stroke="#D4A843" stroke-width="0.6" opacity="0.35"/>
  <circle cx="83.57289678585829" cy="140.64999999999998" r="0.8" fill="#F0CF5A" opacity="0.65"/>
  <circle cx="127.99999999999999" cy="166.3" r="8.74" fill="url(#node)"/>
  <circle cx="127.99999999999999" cy="166.3" r="2" fill="none" stroke="#D4A843" stroke-width="0.6" opacity="0.48"/>
  <circle cx="127.99999999999999" cy="166.3" r="0.8" fill="#F0CF5A" opacity="0.9"/>
  <circle cx="172.4271032141417" cy="140.64999999999998" r="8.74" fill="url(#node)"/>
  <circle cx="172.4271032141417" cy="140.64999999999998" r="2" fill="none" stroke="#D4A843" stroke-width="0.6" opacity="0.43"/>
  <circle cx="172.4271032141417" cy="140.64999999999998" r="0.8" fill="#F0CF5A" opacity="0.8"/>
  <circle cx="128" cy="115" r="17.290000000000003" fill="url(#crystal)"/>
  <path d="M 128 101.7 L 135.581 110.611 L 135.581 119.389 L 128 128.3 L 120.419 119.389 L 120.419 110.611 Z" fill="#080E1A" stroke="#D4A843" stroke-width="1.2" opacity="0.9"/>
  <path d="M 128 108.16 L 131.9672 112.7428 L 131.9672 117.2572 L 128 121.84 L 124.0328 117.2572 L 124.0328 112.7428 Z" fill="none" stroke="#D4A843" stroke-width="0.4" opacity="0.45"/>
  <circle cx="128" cy="115" r="5.985" fill="url(#crystal)" opacity="0.7"/>
  <circle cx="128" cy="115" r="1.2" fill="#F0CF5A"/>
  <text x="128" y="230" text-anchor="middle" fill="#EFF1F5" opacity="0.92" font-family="-apple-system,system-ui,sans-serif" font-weight="400" font-size="11px" letter-spacing="1">NEXUS</text>
  <text x="137.24" y="229.79" text-anchor="middle" fill="#F0CF5A" opacity="0.88" font-family="-apple-system,system-ui,sans-serif" font-weight="400" font-size="4px">.ai</text>
</svg>