<?xml version="1.0" encoding="UTF-8"?>
<svg xmlns="http://www.w3.org/2000/svg" width="600" height="600" viewBox="0 0 600 600">
  <defs>
    <radialGradient id="node">
      <stop offset="0%" stop-color="#F0CF5A" stop-opacity="1"/>
      <stop offset="20%" stop-color="#D4A843" stop-opacity="0.6"/>
      <stop offset="60%" stop-color="#D4A843" stop-opacity="0.1"/>
      <stop offset="100%" stop-color="#D4A843" stop-opacity="0"/>
    </radialGradient>
    <radialGradient id="crystal">
      <stop offset="0%" stop-color="#F0CF5A" stop-opacity="0.9"/>
      <stop offset="30%" stop-color="#D4A843" stop-opacity="0.3"/>
      <stop offset="100%" stop-color="#D4A843" stop-opacity="0"/>
    </radialGradient>
    <radialGradient id="outerGlow">
      <stop offset="0%" stop-color="#D4A843" stop-opacity="0.08"/>
      <stop offset="100%" stop-color="#D4A843" stop-opacity="0"/>
    </radialGradient>
    <radialGradient id="monoNode">
      <stop offset="0%" stop-color="#CCCCCC" stop-opacity="1"/>
      <stop offset="20%" stop-color="#999999" stop-opacity="0.6"/>
      <stop offset="60%" stop-color="#666666" stop-opacity="0.1"/>
      <stop offset="100%" stop-color="#444444" stop-opacity="0"/>
    </radialGradient>
    <radialGradient id="monoCrystal">
      <stop offset="0%" stop-color="#CCCCCC" stop-opacity="0.9"/>
      <stop offset="30%" stop-color="#999999" stop-opacity="0.3"/>
      <stop offset="100%" stop-color="#666666" stop-opacity="0"/>
    </radialGradient>
  </defs>
  <rect width="600" height="600" fill="#080E1A"/>
  <circle cx="300" cy="260" r="172.125" fill="url(#outerGlow)"/>
  <circle cx="300" cy="260" r="131.96249999999998" fill="none" stroke="#7B7590" stroke-width="0.68" opacity="0.1"/>
  <path d="M 399.37641508426435 202.625 Q 369.56349055898505 179.67499999999998, 300.0 145.25" fill="none" stroke="#D4A843" stroke-width="1.02" opacity="0.22"/>
  <path d="M 300.0 145.25 Q 270.1870754747207 168.2, 200.62358491573568 202.62499999999997" fill="none" stroke="#D4A843" stroke-width="1.02" opacity="0.22"/>
  <path d="M 200.62358491573568 202.62499999999997 Q 200.62358491573568 248.52499999999998, 200.62358491573565 317.375" fill="none" stroke="#D4A843" stroke-width="1.02" opacity="0.22"/>
  <path d="M 200.62358491573565 317.375 Q 230.43650944101495 340.325, 300.0 374.75" fill="none" stroke="#D4A843" stroke-width="1.02" opacity="0.22"/>
  <path d="M 300.0 374.75 Q 329.8129245252793 351.79999999999995, 399.37641508426435 317.37499999999994" fill="none" stroke="#D4A843" stroke-width="1.02" opacity="0.22"/>
  <path d="M 399.37641508426435 317.37499999999994 Q 399.37641508426435 271.4749999999999, 399.37641508426435 202.625" fill="none" stroke="#D4A843" stroke-width="1.02" opacity="0.22"/>
  <polygon points="399.37641508426435,202.625 300.0,145.25 200.62358491573568,202.62499999999997 200.62358491573565,317.375 300.0,374.75 399.37641508426435,317.37499999999994" fill="none" stroke="#D4A843" stroke-width="1.275" opacity="0.45"/>
  <line x1="300" y1="260" x2="399.37641508426435" y2="202.625" stroke="#D4A843" stroke-width="0.85" opacity="0.3"/>
  <line x1="300" y1="260" x2="300.0" y2="145.25" stroke="#D4A843" stroke-width="0.85" opacity="0.3"/>
  <line x1="300" y1="260" x2="200.62358491573568" y2="202.62499999999997" stroke="#D4A843" stroke-width="0.85" opacity="0.3"/>
  <line x1="300" y1="260" x2="200.62358491573565" y2="317.375" stroke="#D4A843" stroke-width="0.85" opacity="0.3"/>
  <line x1="300" y1="260" x2="300.0" y2="374.75" stroke="#D4A843" stroke-width="0.85" opacity="0.3"/>
  <line x1="300" y1="260" x2="399.37641508426435" y2="317.37499999999994" stroke="#D4A843" stroke-width="0.85" opacity="0.3"/>
  <circle cx="399.37641508426435" cy="202.625" r="19.55" fill="url(#node)"/>
  <circle cx="399.37641508426435" cy="202.625" r="4.25" fill="none" stroke="#D4A843" stroke-width="1.105" opacity="0.55"/>
  <circle cx="399.37641508426435" cy="202.625" r="1.7" fill="#F0CF5A" opacity="1.0"/>
  <circle cx="300.0" cy="145.25" r="19.55" fill="url(#node)"/>
  <circle cx="300.0" cy="145.25" r="4.25" fill="none" stroke="#D4A843" stroke-width="1.105" opacity="0.4"/>
  <circle cx="300.0" cy="145.25" r="1.7" fill="#F0CF5A" opacity="0.75"/>
  <circle cx="200.62358491573568" cy="202.62499999999997" r="19.55" fill="url(#node)"/>
  <circle cx="200.62358491573568" cy="202.62499999999997" r="4.25" fill="none" stroke="#D4A843" stroke-width="1.105" opacity="0.5"/>
  <circle cx="200.62358491573568" cy="202.62499999999997" r="1.7" fill="#F0CF5A" opacity="0.95"/>
  <circle cx="200.62358491573565" cy="317.375" r="19.55" fill="url(#node)"/>
  <circle cx="200.62358491573565" cy="317.375" r="4.25" fill="none" stroke="#D4A843" stroke-width="1.105" opacity="0.35"/>
  <circle cx="200.62358491573565" cy="317.375" r="1.7" fill="#F0CF5A" opacity="0.65"/>
  <circle cx="300.0" cy="374.75" r="19.55" fill="url(#node)"/>
  <circle cx="300.0" cy="374.75" r="4.25" fill="none" stroke="#D4A843" stroke-width="1.105" opacity="0.48"/>
  <circle cx="300.0" cy="374.75" r="1.7" fill="#F0CF5A" opacity="0.9"/>
  <circle cx="399.37641508426435" cy="317.37499999999994" r="19.55" fill="url(#node)"/>
  <circle cx="399.37641508426435" cy="317.37499999999994" r="4.25" fill="none" stroke="#D4A843" stroke-width="1.105" opacity="0.43"/>
  <circle cx="399.37641508426435" cy="317.37499999999994" r="1.7" fill="#F0CF5A" opacity="0.8"/>
  <circle cx="300" cy="260" r="38.675000000000004" fill="url(#crystal)"/>
  <path d="M 300 230.25 L 316.9575 250.1825 L 316.9575 269.8175 L 300 289.75 L 283.0425 269.8175 L 283.0425 250.1825 Z" fill="#080E1A" stroke="#D4A843" stroke-width="2.125" opacity="0.9"/>
  <path d="M 300 244.7 L 308.874 254.951 L 308.874 265.049 L 300 275.3 L 291.126 265.049 L 291.126 254.951 Z" fill="none" stroke="#D4A843" stroke-width="0.68" opacity="0.45"/>
  <circle cx="300" cy="260" r="13.387500000000001" fill="url(#crystal)" opacity="0.7"/>
  <circle cx="300" cy="260" r="2.55" fill="#F0CF5A"/>
  <text x="300" y="510" text-anchor="middle" fill="#EFF1F5" opacity="0.92" font-family="-apple-system,system-ui,sans-serif" font-weight="400" font-size="25px" letter-spacing="1.8">NEXUS</text>
  <text x="319.8" y="509.55" text-anchor="middle" fill="#F0CF5A" opacity="0.88" font-family="-apple-system,system-ui,sans-serif" font-weight="400" font-size="9px">.ai</text>
  <text x="300" y="523.5" text-anchor="middle" fill="#4B5070" opacity="0.55" font-family="-apple-system,system-ui,sans-serif" font-weight="300" font-size="6px" letter-spacing="0.5">ED25519 DECENTRALIZED IDENTITY</text>
</svg>