<?xml version="1.0" encoding="UTF-8"?>
<svg xmlns="http://www.w3.org/2000/svg" width="48" height="48" viewBox="0 0 48 48">
  <defs>
    <radialGradient id="node">
      <stop offset="0%" stop-color="#F0CF5A" stop-opacity="1"/>
      <stop offset="20%" stop-color="#D4A843" stop-opacity="0.6"/>
      <stop offset="60%" stop-color="#D4A843" stop-opacity="0.1"/>
      <stop offset="100%" stop-color="#D4A843" stop-opacity="0"/>
    </radialGradient>
    <radialGradient id="crystal">
      <stop offset="0%" stop-color="#F0CF5A" stop-opacity="0.9"/>
      <stop offset="30%" stop-color="#D4A843" stop-opacity="0.3"/>
      <stop offset="100%" stop-color="#D4A843" stop-opacity="0"/>
    </radialGradient>
    <radialGradient id="outerGlow">
      <stop offset="0%" stop-color="#D4A843" stop-opacity="0.08"/>
      <stop offset="100%" stop-color="#D4A843" stop-opacity="0"/>
    </radialGradient>
    <radialGradient id="monoNode">
      <stop offset="0%" stop-color="#CCCCCC" stop-opacity="1"/>
      <stop offset="20%" stop-color="#999999" stop-opacity="0.6"/>
      <stop offset="60%" stop-color="#666666" stop-opacity="0.1"/>
      <stop offset="100%" stop-color="#444444" stop-opacity="0"/>
    </radialGradient>
    <radialGradient id="monoCrystal">
      <stop offset="0%" stop-color="#CCCCCC" stop-opacity="0.9"/>
      <stop offset="30%" stop-color="#999999" stop-opacity="0.3"/>
      <stop offset="100%" stop-color="#666666" stop-opacity="0"/>
    </radialGradient>
  </defs>
  <rect width="48" height="48" fill="#080E1A"/>
  <circle cx="24" cy="24" r="24.299999999999997" fill="url(#outerGlow)"/>
  <circle cx="24" cy="24" r="18.63" fill="none" stroke="#7B7590" stroke-width="0.3" opacity="0.1"/>
  <path d="M 38.02961154130791 15.900000000000002 Q 33.820728078915536 12.660000000000002, 24.0 7.800000000000001" fill="none" stroke="#D4A843" stroke-width="0.5" opacity="0.22"/>
  <path d="M 24.0 7.800000000000001 Q 19.79111653760763 11.039999999999997, 9.970388458692097 15.899999999999995" fill="none" stroke="#D4A843" stroke-width="0.5" opacity="0.22"/>
  <path d="M 9.970388458692097 15.899999999999995 Q 9.970388458692096 22.379999999999995, 9.970388458692092 32.099999999999994" fill="none" stroke="#D4A843" stroke-width="0.5" opacity="0.22"/>
  <path d="M 9.970388458692092 32.099999999999994 Q 14.179271921084464 35.339999999999996, 23.999999999999996 40.2" fill="none" stroke="#D4A843" stroke-width="0.5" opacity="0.22"/>
  <path d="M 23.999999999999996 40.2 Q 28.20888346239237 36.96, 38.02961154130791 32.099999999999994" fill="none" stroke="#D4A843" stroke-width="0.5" opacity="0.22"/>
  <path d="M 38.02961154130791 32.099999999999994 Q 38.02961154130791 25.619999999999997, 38.02961154130791 15.900000000000002" fill="none" stroke="#D4A843" stroke-width="0.5" opacity="0.22"/>
  <polygon points="38.02961154130791,15.900000000000002 24.0,7.800000000000001 9.970388458692097,15.899999999999995 9.970388458692092,32.099999999999994 23.999999999999996,40.2 38.02961154130791,32.099999999999994" fill="none" stroke="#D4A843" stroke-width="0.8" opacity="0.45"/>
  <line x1="24" y1="24" x2="38.02961154130791" y2="15.900000000000002" stroke="#D4A843" stroke-width="0.5" opacity="0.3"/>
  <line x1="24" y1="24" x2="24.0" y2="7.800000000000001" stroke="#D4A843" stroke-width="0.5" opacity="0.3"/>
  <line x1="24" y1="24" x2="9.970388458692097" y2="15.899999999999995" stroke="#D4A843" stroke-width="0.5" opacity="0.3"/>
  <line x1="24" y1="24" x2="9.970388458692092" y2="32.099999999999994" stroke="#D4A843" stroke-width="0.5" opacity="0.3"/>
  <line x1="24" y1="24" x2="23.999999999999996" y2="40.2" stroke="#D4A843" stroke-width="0.5" opacity="0.3"/>
  <line x1="24" y1="24" x2="38.02961154130791" y2="32.099999999999994" stroke="#D4A843" stroke-width="0.5" opacity="0.3"/>
  <circle cx="38.02961154130791" cy="15.900000000000002" r="2.76" fill="url(#node)"/>
  <circle cx="38.02961154130791" cy="15.900000000000002" r="2" fill="none" stroke="#D4A843" stroke-width="0.6" opacity="0.55"/>
  <circle cx="38.02961154130791" cy="15.900000000000002" r="0.8" fill="#F0CF5A" opacity="1.0"/>
  <circle cx="24.0" cy="7.800000000000001" r="2.76" fill="url(#node)"/>
  <circle cx="24.0" cy="7.800000000000001" r="2" fill="none" stroke="#D4A843" stroke-width="0.6" opacity="0.4"/>
  <circle cx="24.0" cy="7.800000000000001" r="0.8" fill="#F0CF5A" opacity="0.75"/>
  <circle cx="9.970388458692097" cy="15.899999999999995" r="2.76" fill="url(#node)"/>
  <circle cx="9.970388458692097" cy="15.899999999999995" r="2" fill="none" stroke="#D4A843" stroke-width="0.6" opacity="0.5"/>
  <circle cx="9.970388458692097" cy="15.899999999999995" r="0.8" fill="#F0CF5A" opacity="0.95"/>
  <circle cx="9.970388458692092" cy="32.099999999999994" r="2.76" fill="url(#node)"/>
  <circle cx="9.970388458692092" cy="32.099999999999994" r="2" fill="none" stroke="#D4A843" stroke-width="0.6" opacity="0.35"/>
  <circle cx="9.970388458692092" cy="32.099999999999994" r="0.8" fill="#F0CF5A" opacity="0.65"/>
  <circle cx="23.999999999999996" cy="40.2" r="2.76" fill="url(#node)"/>
  <circle cx="23.999999999999996" cy="40.2" r="2" fill="none" stroke="#D4A843" stroke-width="0.6" opacity="0.48"/>
  <circle cx="23.999999999999996" cy="40.2" r="0.8" fill="#F0CF5A" opacity="0.9"/>
  <circle cx="38.02961154130791" cy="32.099999999999994" r="2.76" fill="url(#node)"/>
  <circle cx="38.02961154130791" cy="32.099999999999994" r="2" fill="none" stroke="#D4A843" stroke-width="0.6" opacity="0.43"/>
  <circle cx="38.02961154130791" cy="32.099999999999994" r="0.8" fill="#F0CF5A" opacity="0.8"/>
  <circle cx="24" cy="24" r="5.460000000000001" fill="url(#crystal)"/>
  <path d="M 24 19.8 L 26.394 22.614 L 26.394 25.386 L 24 28.2 L 21.606 25.386 L 21.606 22.614 Z" fill="#080E1A" stroke="#D4A843" stroke-width="1.2" opacity="0.9"/>
  <path d="M 24 21.84 L 25.2528 23.2872 L 25.2528 24.7128 L 24 26.16 L 22.7472 24.7128 L 22.7472 23.2872 Z" fill="none" stroke="#D4A843" stroke-width="0.4" opacity="0.45"/>
  <circle cx="24" cy="24" r="1.8900000000000001" fill="url(#crystal)" opacity="0.7"/>
  <circle cx="24" cy="24" r="1.2" fill="#F0CF5A"/>
</svg>