<?xml version="1.0" encoding="UTF-8"?>
<svg xmlns="http://www.w3.org/2000/svg" width="1500" height="500" viewBox="0 0 1500 500">
  <defs>
    <radialGradient id="node">
      <stop offset="0%" stop-color="#F0CF5A" stop-opacity="1"/>
      <stop offset="20%" stop-color="#D4A843" stop-opacity="0.6"/>
      <stop offset="60%" stop-color="#D4A843" stop-opacity="0.1"/>
      <stop offset="100%" stop-color="#D4A843" stop-opacity="0"/>
    </radialGradient>
    <radialGradient id="crystal">
      <stop offset="0%" stop-color="#F0CF5A" stop-opacity="0.9"/>
      <stop offset="30%" stop-color="#D4A843" stop-opacity="0.3"/>
      <stop offset="100%" stop-color="#D4A843" stop-opacity="0"/>
    </radialGradient>
    <radialGradient id="outerGlow">
      <stop offset="0%" stop-color="#D4A843" stop-opacity="0.08"/>
      <stop offset="100%" stop-color="#D4A843" stop-opacity="0"/>
    </radialGradient>
    <radialGradient id="monoNode">
      <stop offset="0%" stop-color="#CCCCCC" stop-opacity="1"/>
      <stop offset="20%" stop-color="#999999" stop-opacity="0.6"/>
      <stop offset="60%" stop-color="#666666" stop-opacity="0.1"/>
      <stop offset="100%" stop-color="#444444" stop-opacity="0"/>
    </radialGradient>
    <radialGradient id="monoCrystal">
      <stop offset="0%" stop-color="#CCCCCC" stop-opacity="0.9"/>
      <stop offset="30%" stop-color="#999999" stop-opacity="0.3"/>
      <stop offset="100%" stop-color="#666666" stop-opacity="0"/>
    </radialGradient>
  </defs>
  <rect width="1500" height="500" fill="#080E1A"/>
  <circle cx="400" cy="250" r="202.5" fill="url(#outerGlow)"/>
  <circle cx="400" cy="250" r="155.25" fill="none" stroke="#7B7590" stroke-width="0.8" opacity="0.1"/>
  <path d="M 516.9134295108993 182.5 Q 481.8394006576295 155.5, 400.0 115.0" fill="none" stroke="#D4A843" stroke-width="1.2" opacity="0.22"/>
  <path d="M 400.0 115.0 Q 364.92597114673026 141.99999999999997, 283.08657048910084 182.49999999999994" fill="none" stroke="#D4A843" stroke-width="1.2" opacity="0.22"/>
  <path d="M 283.08657048910084 182.49999999999994 Q 283.08657048910084 236.49999999999994, 283.0865704891008 317.49999999999994" fill="none" stroke="#D4A843" stroke-width="1.2" opacity="0.22"/>
  <path d="M 283.0865704891008 317.49999999999994 Q 318.1605993423706 344.49999999999994, 400.0 385.0" fill="none" stroke="#D4A843" stroke-width="1.2" opacity="0.22"/>
  <path d="M 400.0 385.0 Q 435.0740288532698 358.0, 516.9134295108993 317.49999999999994" fill="none" stroke="#D4A843" stroke-width="1.2" opacity="0.22"/>
  <path d="M 516.9134295108993 317.49999999999994 Q 516.9134295108993 263.49999999999994, 516.9134295108993 182.5" fill="none" stroke="#D4A843" stroke-width="1.2" opacity="0.22"/>
  <polygon points="516.9134295108993,182.5 400.0,115.0 283.08657048910084,182.49999999999994 283.0865704891008,317.49999999999994 400.0,385.0 516.9134295108993,317.49999999999994" fill="none" stroke="#D4A843" stroke-width="1.5" opacity="0.45"/>
  <line x1="400" y1="250" x2="516.9134295108993" y2="182.5" stroke="#D4A843" stroke-width="1.0" opacity="0.3"/>
  <line x1="400" y1="250" x2="400.0" y2="115.0" stroke="#D4A843" stroke-width="1.0" opacity="0.3"/>
  <line x1="400" y1="250" x2="283.08657048910084" y2="182.49999999999994" stroke="#D4A843" stroke-width="1.0" opacity="0.3"/>
  <line x1="400" y1="250" x2="283.0865704891008" y2="317.49999999999994" stroke="#D4A843" stroke-width="1.0" opacity="0.3"/>
  <line x1="400" y1="250" x2="400.0" y2="385.0" stroke="#D4A843" stroke-width="1.0" opacity="0.3"/>
  <line x1="400" y1="250" x2="516.9134295108993" y2="317.49999999999994" stroke="#D4A843" stroke-width="1.0" opacity="0.3"/>
  <circle cx="516.9134295108993" cy="182.5" r="23.0" fill="url(#node)"/>
  <circle cx="516.9134295108993" cy="182.5" r="5.0" fill="none" stroke="#D4A843" stroke-width="1.3" opacity="0.55"/>
  <circle cx="516.9134295108993" cy="182.5" r="2.0" fill="#F0CF5A" opacity="1.0"/>
  <circle cx="400.0" cy="115.0" r="23.0" fill="url(#node)"/>
  <circle cx="400.0" cy="115.0" r="5.0" fill="none" stroke="#D4A843" stroke-width="1.3" opacity="0.4"/>
  <circle cx="400.0" cy="115.0" r="2.0" fill="#F0CF5A" opacity="0.75"/>
  <circle cx="283.08657048910084" cy="182.49999999999994" r="23.0" fill="url(#node)"/>
  <circle cx="283.08657048910084" cy="182.49999999999994" r="5.0" fill="none" stroke="#D4A843" stroke-width="1.3" opacity="0.5"/>
  <circle cx="283.08657048910084" cy="182.49999999999994" r="2.0" fill="#F0CF5A" opacity="0.95"/>
  <circle cx="283.0865704891008" cy="317.49999999999994" r="23.0" fill="url(#node)"/>
  <circle cx="283.0865704891008" cy="317.49999999999994" r="5.0" fill="none" stroke="#D4A843" stroke-width="1.3" opacity="0.35"/>
  <circle cx="283.0865704891008" cy="317.49999999999994" r="2.0" fill="#F0CF5A" opacity="0.65"/>
  <circle cx="400.0" cy="385.0" r="23.0" fill="url(#node)"/>
  <circle cx="400.0" cy="385.0" r="5.0" fill="none" stroke="#D4A843" stroke-width="1.3" opacity="0.48"/>
  <circle cx="400.0" cy="385.0" r="2.0" fill="#F0CF5A" opacity="0.9"/>
  <circle cx="516.9134295108993" cy="317.49999999999994" r="23.0" fill="url(#node)"/>
  <circle cx="516.9134295108993" cy="317.49999999999994" r="5.0" fill="none" stroke="#D4A843" stroke-width="1.3" opacity="0.43"/>
  <circle cx="516.9134295108993" cy="317.49999999999994" r="2.0" fill="#F0CF5A" opacity="0.8"/>
  <circle cx="400" cy="250" r="45.5" fill="url(#crystal)"/>
  <path d="M 400 215.0 L 419.95 238.45 L 419.95 261.55 L 400 285.0 L 380.05 261.55 L 380.05 238.45 Z" fill="#080E1A" stroke="#D4A843" stroke-width="2.5" opacity="0.9"/>
  <path d="M 400 232.0 L 410.44 244.06 L 410.44 255.94 L 400 268.0 L 389.56 255.94 L 389.56 244.06 Z" fill="none" stroke="#D4A843" stroke-width="0.8" opacity="0.45"/>
  <circle cx="400" cy="250" r="15.75" fill="url(#crystal)" opacity="0.7"/>
  <circle cx="400" cy="250" r="3.0" fill="#F0CF5A"/>  <text x="700" y="220" text-anchor="start" fill="#EFF1F5" opacity="0.92" font-family="-apple-system,system-ui,sans-serif" font-weight="400" font-size="64px" letter-spacing="6">NEXUS</text>
  <text x="830" y="218" text-anchor="start" fill="#F0CF5A" opacity="0.88" font-family="-apple-system,system-ui,sans-serif" font-weight="400" font-size="22px">.ai</text>
  <text x="700" y="260" text-anchor="start" fill="#4B5070" opacity="0.55" font-family="-apple-system,system-ui,sans-serif" font-weight="300" font-size="14px" letter-spacing="1">ED25519 DECENTRALIZED IDENTITY PROTOCOL</text>
  <text x="700" y="310" text-anchor="start" fill="#4B5070" opacity="0.35" font-family="-apple-system,system-ui,sans-serif" font-weight="300" font-size="11px">AI · CRYPTO · PHILOSOPHY</text>

</svg>